<?xml version="1.0" standalone="no"?><!DOCTYPE svg PUBLIC "-//W3C//DTD SVG 1.1//EN" "http://www.w3.org/Graphics/SVG/1.1/DTD/svg11.dtd"><svg t="1741974785718" class="icon" viewBox="0 0 1092 1024" version="1.1" xmlns="http://www.w3.org/2000/svg" p-id="3334" xmlns:xlink="http://www.w3.org/1999/xlink" width="17.0625" height="16"><path d="M330.267631 2.609512c10.310096 13.833087 20.709575 27.599044 31.001868 41.445853 15.066634 20.26934 30.31537 40.403309 45.420205 60.644092 30.104339 40.34063 60.290643 80.620065 90.417234 120.944006 15.11559 20.232252 30.322417 40.396262 45.379408 60.672278 16.913246 22.775006 34.024171 45.401289 50.970425 68.151075 3.133566 4.205781 6.330924 8.366685 9.35953 12.648496 1.143423 1.616666 2.101407 1.881104 3.545243 0.334534 5.881046-6.297915 11.788054-12.572836 17.540405-18.987579 2.669595-2.977426 5.445262-5.860277 8.175681-8.772427 10.148022-10.823024 20.15548-21.777339 30.276798-32.62484 11.15014-11.950499 22.198658-23.997798 33.319128-35.977968 8.883321-9.571303 17.744388-19.163746 26.616582-28.745434 8.933018-9.646592 17.853427-19.304681 26.79683-28.94163 8.701218-9.376591 17.345692-18.806218 26.048765-28.182067 8.944145-9.635836 17.863441-19.295038 26.798314-28.940147 8.813224-9.514188 17.620885-19.033938 26.435964-28.547384 11.169426-12.055458 22.302134-24.145037 33.47193-36.200495 8.51244-9.187071 17.067903-18.337055 25.508393-27.589772 9.698886-10.631649 19.559476-21.113092 29.272455-31.73139 5.33474-5.83209 10.749218-11.599276 16.1229-17.399841 3.439542-3.712881 6.996283-7.320061 10.305275-11.159783 0.186924-0.216594 0.369767-0.443573 0.553353-0.672405l0.137968-0.172089 0.138709-0.172459c0.997668-1.233176 2.085088-2.419993 4.001425-2.358056 31.029685-0.003709 62.05121 0.013352 93.063464-0.00853 1.684908 0.725442 1.00694 1.55065 0.350853 2.225281l-0.072693 0.074176c-0.108297 0.110893-0.213998 0.216965-0.305234 0.317473-1.733494 1.905953-3.409872 3.875697-5.19603 5.718972-8.103731 8.36038-15.872185 17.031928-23.767482 25.580714-9.642883 10.440275-19.336947 20.836045-28.911217 31.341595-5.384067 5.907749-10.906842 11.697559-16.325772 17.57675-7.82557 8.491671-15.731251 16.909908-23.498964 25.45647-4.838873 5.324355-9.781592 10.557473-14.672759 15.83621a31489.463122 31489.463122 0 0 0-25.525083 27.577533c-5.306182 5.740853-10.679864 11.423108-15.963051 17.185842-7.744348 8.446424-15.588833 16.800127-23.318716 25.260645-4.97239 5.442666-10.001524 10.838601-15.029546 16.23231-8.41972 9.032785-16.77602 18.123799-25.152348 27.196268-4.760988 5.156717-9.516413 10.319368-14.296315 15.459025a8299.083845 8299.083845 0 0 0-25.162362 27.184771c-5.057321 5.48643-10.138379 10.953573-15.22092 16.418492-8.288058 8.911878-16.53977 17.857136-24.800011 26.794234-4.944574 5.349575-9.872458 10.71621-14.83298 16.051691a8602.431142 8602.431142 0 0 0-24.616797 26.600635c-5.178228 5.616979-10.387981 11.207255-15.584753 16.809028-8.156025 8.792455-16.327626 17.570075-24.426535 26.415566-4.799189 5.240536-9.712608 10.37908-14.473968 15.658187-2.083604 2.310212-2.147025 2.26311-0.2025 4.860384 10.127252 13.52711 20.341291 26.989688 30.399559 40.56798 15.192733 20.50967 30.650645 40.820549 45.854505 61.320947 15.734589 21.215084 31.723972 42.239166 47.455224 63.455734 15.307706 20.645413 30.87577 41.095742 46.173091 61.748943 15.139326 20.439203 30.556071 40.672197 45.700218 61.107691 15.196071 20.505962 30.61059 40.848365 45.863777 61.311676 30.507115 40.928475 61.139958 81.762747 91.690095 122.658955 15.38114 20.589781 30.86316 41.104643 46.184217 61.738559 13.836795 18.635242 27.813042 37.165526 41.696568 55.765534 0.184327 0.247006 0.391279 0.491045 0.594521 0.738793l0.110522 0.135742c0.693917 0.862667 1.286212 1.792464 0.69503 3.109088h-324.5112c-1.056637-0.513669-1.742395-1.389688-2.396999-2.292039l-0.356045-0.492158c-0.059341-0.081965-0.119423-0.163558-0.179506-0.244781-12.57877-16.913617-25.21651-33.783841-37.856846-50.651839a61152.743336 61152.743336 0 0 1-62.646844-83.764016c-14.208417-19.028375-28.521423-37.978866-42.674207-57.04915-16.908795-22.784649-34.067935-45.382375-50.977843-68.165911-6.065003-8.171231-12.167093-16.314275-18.27586-24.452497l-9.164447-12.206035c-6.108025-8.138964-12.207519-16.283862-18.268071-24.457689-15.309931-20.64875-30.823846-41.144327-46.186072-61.753394l-1.455705-1.956764-2.9077-3.915752c-1.938961-2.609883-3.883115-5.215687-5.85323-7.803318-1.07036-1.405636-1.669702-1.646708-2.99189-0.174313-5.519067 6.148821-11.236926 12.118137-16.804578 18.223194-7.723208 8.468306-15.590687 16.802724-23.313524 25.2714-4.908227 5.382212-9.895452 10.696183-14.847443 16.041678-8.453841 9.123651-16.928823 18.228758-25.338901 27.393947-4.865576 5.302473-9.783817 10.558957-14.684256 15.830647a6477.986445 6477.986445 0 0 0-25.327403 27.404332c-4.929739 5.365523-9.95331 10.643888-14.876373 16.017199-8.1627 8.90817-16.430731 17.719539-24.594914 26.62808-4.982403 5.436361-10.037499 10.808188-15.046978 16.221555-8.327 8.998293-16.684784 17.968771-24.971729 27.004523-4.924175 5.369602-9.909546 10.684685-14.865246 16.025729-8.762784 9.44372-17.444346 18.964213-26.292062 28.326711-5.494218 5.813546-10.926128 11.683465-16.340236 17.568591-7.819265 8.500201-15.74349 16.902861-23.497481 25.463887-4.890054 5.398902-9.905466 10.688023-14.844847 16.044274-7.889733 8.555833-15.81099 17.081996-23.661039 25.674918-4.673831 5.11592-9.404036 10.182514-14.106425 15.272843-8.49983 9.202277-16.938466 18.462412-25.542143 27.565665-3.598279 3.806714-6.89392 7.910131-10.826361 11.400483H0.334905c-0.65757-1.096693 0.014835-1.740911 0.650523-2.331352l0.094946-0.087899c0.094204-0.087899 0.185811-0.175055 0.270742-0.262583 8.219816-8.493155 16.088409-17.312684 24.182496-25.923036 11.559962-12.298385 22.986779-24.723981 34.465519-37.09988 8.880724-9.574641 17.746614-19.163376 26.608794-28.754706 10.550427-11.419399 20.997378-22.93263 31.60937-34.297139 8.669323-9.284242 17.230348-18.671218 25.871484-27.983276 11.300346-12.177478 22.571764-24.381659 33.868773-36.562103a16861.100552 16861.100552 0 0 0 26.05952-28.17465c8.918925-9.661427 17.858248-19.302085 26.793863-28.947564 8.814708-9.514558 17.636833-19.023183 26.434851-28.552947a17548.08142 17548.08142 0 0 1 33.491587-36.187886 13741.56596 13741.56596 0 0 0 26.250153-28.359719 18063.518737 18063.518737 0 0 1 33.497151-36.180839c8.641878-9.310945 17.248151-18.655641 25.870742-27.984759 11.275868-12.200101 22.505747-24.441741 33.869143-36.561362 3.94839-4.210973 7.654595-8.656713 11.77804-12.697822 1.652642-1.620004 1.533589-2.767137 0.21511-4.510273-10.03342-13.265269-20.040136-26.551307-29.955616-39.904476-15.798751-21.277392-31.794811-42.407545-47.608767-63.67344-13.538237-18.205763-27.209991-36.310647-40.775673-54.49564l-5.081799-6.823082c-15.227967-20.48408-30.63136-40.836497-45.857101-61.32206-15.278777-20.557885-30.7493-40.971868-46.014726-61.538283-15.213502-20.495948-30.664739-40.813502-45.857101-61.324286-15.193475-20.511896-30.666593-40.814244-45.863035-61.323543-15.196071-20.508558-30.641744-40.830192-45.857843-61.322431C52.486954 67.864756 35.429807 45.306715 18.533621 22.629621 13.805271 16.283491 9.09398 9.924752 4.354503 3.586411l-0.221786-0.295963C3.726233 2.74748 3.330133 2.198206 3.070146 1.565114 2.557218 0.314506 3.336067 0.228462 4.261042 0.274451c107.495522 0 214.980659 0.001854 322.456524-0.001112 1.851434-0.249231 2.648084 1.125621 3.550065 2.335803z m-40.141097 67.967491c-48.125033 0.058599-96.249695 0.044506-144.374728 0.061195-0.14761 0-0.2993-0.011868-0.453216-0.02522l-0.155028-0.013352c-0.571897-0.048214-1.176803-0.064533-1.773548 0.481403 0.797392 1.080745 1.572532 2.145171 2.361393 3.199953 57.345854 76.68206 114.692821 153.362637 172.04016 230.043955 67.783534 90.636054 135.570034 181.270253 203.349859 271.908903 93.443616 124.9573 186.885378 249.915712 280.286342 374.904536 1.136748 1.520608 2.267932 2.115871 4.156083 2.115871 47.947381-0.048956 95.894021-0.038572 143.84066-0.038942h2.754527c-0.320811-1.300677-1.039206-1.970486-1.600719-2.72226-10.169162-13.600174-20.345371-27.195155-30.514903-40.794959-86.945055-116.273512-173.887142-232.54925-260.834793-348.821279-72.305304-96.691413-144.618767-193.376522-216.924813-290.067193-49.357468-66.003309-98.712339-132.008472-148.034202-198.038114-1.101143-1.474248-2.182629-2.194498-4.123074-2.194497z" fill="#000000" p-id="3335"></path></svg>