<?xml version="1.0" standalone="no"?><!DOCTYPE svg PUBLIC "-//W3C//DTD SVG 1.1//EN" "http://www.w3.org/Graphics/SVG/1.1/DTD/svg11.dtd"><svg t="1744903952357" class="icon" viewBox="0 0 1024 1024" version="1.1" xmlns="http://www.w3.org/2000/svg" p-id="18159" xmlns:xlink="http://www.w3.org/1999/xlink" width="16" height="16"><path d="M512 512m-512 0a512 512 0 1 0 1024 0 512 512 0 1 0-1024 0Z" fill="#FC8032" fill-opacity=".157" p-id="18160"></path><path d="M759.04 579.925333a117.248 117.248 0 0 0-24.32-37.376 113.194667 113.194667 0 0 0-80.810667-34.218666c-15.616 0-30.421333 3.029333-44.373333 9.173333a114.986667 114.986667 0 0 0-61.226667 62.378667c-5.973333 14.464-9.045333 29.994667-8.96 45.696a119.466667 119.466667 0 0 0 33.536 83.413333c10.496 10.794667 22.954667 19.370667 36.650667 25.216 13.952 6.186667 28.757333 9.258667 44.373333 9.258667 15.274667 0.085333 30.378667-3.072 44.416-9.258667a110.933333 110.933333 0 0 0 36.394667-25.216 121.6 121.6 0 0 0 33.28-83.413333c0-16.042667-2.986667-31.274667-8.96-45.653334z m-44.544 61.738667h-115.541333a15.957333 15.957333 0 0 1-13.781334-8.277333 16.896 16.896 0 0 1-0.042666-16.384 15.872 15.872 0 0 1 13.824-8.234667h115.541333c5.717333 0 10.965333 3.157333 13.824 8.234667a16.853333 16.853333 0 0 1 0 16.426666 15.914667 15.914667 0 0 1-13.824 8.234667zM610.133333 380.501333c0 50.346667-29.482667 95.744-74.709333 115.029334a118.613333 118.613333 0 0 1-131.925333-27.008 127.104 127.104 0 0 1-26.24-135.68C396.032 286.293333 440.149333 256 489.130667 256c32.085333 0 62.890667 13.098667 85.546666 36.48 22.698667 23.338667 35.456 55.04 35.456 88.021333z" fill="#EF7C3A" p-id="18161"></path><path d="M596.565333 757.248a137.728 137.728 0 0 1-43.946666-30.336 143.445333 143.445333 0 0 1-40.192-100.053333 140.842667 140.842667 0 0 1 38.016-97.152 184.448 184.448 0 0 0-61.312-11.221334C366.336 519.552 298.666667 622.506667 298.666667 707.157333 298.666667 765.184 383.914667 768 489.088 768c45.909333 0 87.552-0.554667 120.149333-5.973333a119.893333 119.893333 0 0 1-12.672-4.778667z" fill="#EF7C3A" p-id="18162"></path></svg>